<?xml version="1.0" encoding="UTF-8" standalone="no"?>
<svg
   xmlns:dc="http://purl.org/dc/elements/1.1/"
   xmlns:cc="http://creativecommons.org/ns#"
   xmlns:rdf="http://www.w3.org/1999/02/22-rdf-syntax-ns#"
   xmlns:svg="http://www.w3.org/2000/svg"
   xmlns="http://www.w3.org/2000/svg"
   viewBox="0 0 755.90668 755.90668"
   height="755.90668"
   width="755.90668"
   xml:space="preserve"
   id="svg2"
   version="1.1"><metadata
     id="metadata8"><rdf:RDF><cc:Work
         rdf:about=""><dc:format>image/svg+xml</dc:format><dc:type
           rdf:resource="http://purl.org/dc/dcmitype/StillImage" /></cc:Work></rdf:RDF></metadata><defs
     id="defs6"><clipPath
       id="clipPath18"
       clipPathUnits="userSpaceOnUse"><path
         id="path16"
         d="M 0,566.93 H 566.93 V 0 H 0 Z" /></clipPath><clipPath
       id="clipPath26"
       clipPathUnits="userSpaceOnUse"><path
         id="path24"
         d="M 97.0146,293.095 H 484.537 V 159.4 H 97.0146 Z" /></clipPath><clipPath
       id="clipPath46"
       clipPathUnits="userSpaceOnUse"><path
         id="path44"
         d="M 0,566.93 H 566.93 V 0 H 0 Z" /></clipPath></defs><g
     transform="matrix(1.3333333,0,0,-1.3333333,0,755.90667)"
     id="g10"><g
       id="g12"><g
         clip-path="url(#clipPath18)"
         id="g14"><g
           id="g20"><g
             id="g22" /><g
             id="g34"><g
               id="g32"
               clip-path="url(#clipPath26)"><g
                 id="g30"
                 transform="translate(484.5371,226.2471)"><path
                   id="path28"
                   style="fill:#f3f2f2;fill-opacity:1;fill-rule:evenodd;stroke:none"
                   d="m 0,0 c 0,-36.92 -86.75,-66.847 -193.763,-66.847 -107.01,0 -193.759,29.927 -193.759,66.847 0,36.919 86.749,66.848 193.759,66.848 C -86.75,66.848 0,36.919 0,0" /></g></g></g></g></g></g><g
       transform="translate(298.5049,519.0088)"
       id="g36"><path
         id="path38"
         style="fill:#110f11;fill-opacity:1;fill-rule:nonzero;stroke:none"
         d="m 0,0 -98.934,-32.128 74.011,-62.963 95.028,17.228 z" /></g><g
       id="g40"><g
         clip-path="url(#clipPath46)"
         id="g42"><g
           transform="translate(279.5083,486.9136)"
           id="g48"><path
             id="path50"
             style="fill:#242324;fill-opacity:1;fill-rule:nonzero;stroke:none"
             d="m 0,0 c -25.56,0 -46.281,-5.355 -46.281,-11.963 v -33.86 h 92.562 v 33.86 C 46.281,-5.355 25.56,0 0,0" /></g><path
           id="path52"
           style="fill:#110f11;fill-opacity:1;fill-rule:nonzero;stroke:none"
           d="m 208.005,439.943 h -4.241 v 46.971 h 4.241 z" /><g
           transform="translate(205.9248,441.3384)"
           id="g54"><path
             id="path56"
             style="fill:#f5b24d;fill-opacity:1;fill-rule:nonzero;stroke:none"
             d="m 0,0 c -2.862,0 -5.203,-2.342 -5.203,-5.203 v -8.861 -4.12 h 0.402 v 4.12 h 0.248 v -3.81 h 0.186 v 3.81 h 0.31 v -4.832 h 0.283 v 4.832 h 0.119 v -4.832 H -3.5 v 4.832 h 0.155 v -2.323 h 0.124 v 2.323 h 0.155 v -2.85 h 0.062 v 2.85 h 0.712 v -4.832 h 0.031 v 4.832 h 0.527 v -2.54 h 0.588 v 2.54 h 0.31 v -3.004 h 0.464 v 3.004 H 0 v -4.832 h 0.31 v 4.832 h 0.34 v -4.398 h 0.651 v 4.398 H 1.92 v -3.81 h 0.434 v 3.81 h 0.588 v -3.19 h 0.217 v 3.19 H 3.81 v -4.832 h 0.773 v 4.832 h 0.465 v -4.832 h 0.155 v 4.832 1.238 7.623 C 5.203,-2.342 2.861,0 0,0" /></g><g
           transform="translate(179.481,346.7754)"
           id="g58"><path
             id="path60"
             style="fill:#c985b2;fill-opacity:1;fill-rule:evenodd;stroke:none"
             d="M 0,0 C -18.996,14.453 7.755,35.817 -10.347,53.458 -28.45,71.102 -69.109,36.319 -63.78,29.759 c 5.33,-6.561 31.739,15.751 39.947,5.325 12.437,-15.793 -24.991,-42.512 22.904,-60.986 22.668,-8.744 52.139,-9.547 48.926,-15.768 -23.866,-46.225 -101.792,37.579 -136.304,-27.559 -9.015,-17.016 -2.46,-18.492 6.746,-9.132 9.207,9.357 22.591,21.365 39.698,15.241 28.538,-10.216 67.556,-44.808 117.374,8.821 -4.729,-43.979 -23.504,-41.699 -56.149,-61.49 -42.356,-25.678 13.523,-68.374 21.227,-63.383 6.619,4.286 -26.965,29.149 -8.001,43.925 20.974,16.346 76.906,21.016 78.033,74.914 0,0 31.656,-21.484 9.028,-52.564 -13.925,-19.128 1.518,-35.19 25.204,-48.71 23.685,-13.521 51.911,-15.42 39.813,-7.084 -12.1,8.336 -44.573,22.988 -42.684,40.222 2.287,20.89 26.478,18.296 5.259,64.32 14.991,-12.458 53.054,-43.853 74.583,-35.646 21.528,8.207 40.427,44.185 58.24,43.129 17.812,-1.056 22.523,-17.723 28.762,-23.828 6.238,-6.107 9.958,6.437 1.227,23.602 -25.854,50.83 -65.749,5.962 -88.498,-6.954 -19.388,-11.008 -58.341,13.303 -54.913,20.622 3.432,7.322 36.909,4.501 48.541,9.794 46.723,21.264 1.915,42.982 13.402,59.481 7.58,10.892 35.256,-9.827 40.19,-2.965 4.933,6.862 -37.701,39.192 -54.735,20.514 -17.032,-18.678 10.93,-38.429 -7.181,-53.975 -8.173,-7.019 -65.508,-13.768 -65.132,-4.676 18.956,12.775 30.845,31.272 29.92,62.716 C 169.104,133.889 32.291,137.456 35.055,43.64 35.805,18.158 50.103,-3.698 70.753,-15.074 66.886,-20.503 11.56,-8.796 0,0" /></g><g
           transform="translate(264.7212,398.0337)"
           id="g62"><path
             id="path64"
             style="fill:#414141;fill-opacity:1;fill-rule:evenodd;stroke:none"
             d="m 0,0 c 4.291,0 7.79,3.499 7.79,7.788 0,4.291 -3.499,7.789 -7.79,7.789 -4.29,0 -7.789,-3.498 -7.789,-7.789 C -7.789,3.499 -4.29,0 0,0" /></g><g
           transform="translate(314.3086,400.1904)"
           id="g66"><path
             id="path68"
             style="fill:#414141;fill-opacity:1;fill-rule:evenodd;stroke:none"
             d="m 0,0 c 4.29,0 7.788,3.498 7.788,7.788 0,4.289 -3.498,7.789 -7.788,7.789 -4.289,0 -7.791,-3.5 -7.791,-7.789 C -7.791,3.498 -4.289,0 0,0" /></g><g
           transform="translate(228.3247,313.6875)"
           id="g70"><path
             id="path72"
             style="fill:#dbaccb;fill-opacity:1;fill-rule:evenodd;stroke:none"
             d="m 0,0 c -4.312,5.93 -50.935,12.126 -62.792,24.524 -11.858,12.395 -1.078,21.827 -0.809,31.799 0.27,9.971 -0.539,18.864 -16.17,21.829 -15.63,2.963 -32.853,-15.305 -32.853,-15.305 5.33,-6.561 31.739,15.751 39.948,5.325 12.436,-15.793 -24.991,-42.512 22.903,-60.986 22.668,-8.744 52.14,-9.547 48.926,-15.768 0,0 5.159,2.652 0.847,8.582" /></g><g
           transform="translate(232.3672,280.2695)"
           id="g74"><path
             id="path76"
             style="fill:#dbaccb;fill-opacity:1;fill-rule:evenodd;stroke:none"
             d="m 0,0 c -27.443,-25.651 -88.716,12.023 -108.604,8.759 -18.055,-2.965 -36.815,-24.497 -36.815,-24.497 0.653,-3.532 5.312,-1.872 10.972,3.883 9.206,9.357 22.591,21.365 39.697,15.241 28.539,-10.216 67.557,-44.808 117.375,8.821 0,0 -0.257,7.467 -1.604,7.467 C 19.673,19.674 12.396,11.588 0,0" /></g><g
           transform="translate(284.918,298.0557)"
           id="g78"><path
             id="path80"
             style="fill:#dbaccb;fill-opacity:1;fill-rule:evenodd;stroke:none"
             d="m 0,0 c 0,0 -3.504,-19.402 -14.014,-40.154 -19.139,-37.786 -73.351,-24.509 -69.528,-59.556 1.617,-14.823 19.572,-29.103 19.572,-29.103 0.114,7.046 -26.134,28.84 -8.879,42.286 20.974,16.345 76.906,21.015 78.033,74.914 0,0 31.656,-21.485 9.028,-52.565 -13.925,-19.128 1.518,-35.189 25.204,-48.71 14.395,-8.216 30.463,-12.139 38.143,-12.085 2.894,0.869 4.521,1.409 4.521,1.409 0,0 -29.527,5.796 -41.786,13.209 -12.262,7.41 -27.224,27.353 -26.683,36.516 0.539,9.163 16.843,22.637 16.303,40.962 C 29.374,-14.553 0,0 0,0" /></g><g
           transform="translate(326.7217,282.626)"
           id="g82"><path
             id="path84"
             style="fill:#dbaccb;fill-opacity:1;fill-rule:evenodd;stroke:none"
             d="m 0,0 c 14.991,-12.458 53.055,-43.853 74.583,-35.646 21.528,8.208 40.428,44.185 58.24,43.129 17.813,-1.055 22.524,-17.722 28.762,-23.828 0.98,-0.96 1.895,-1.458 2.714,-1.551 0,0 -9.907,24.029 -21.227,31.573 C 131.756,21.223 122.594,15.833 107.501,3.438 92.409,-8.96 84.326,-23.513 57.915,-24.051 31.506,-24.591 -6.761,11.522 -6.761,11.522 Z" /></g><g
           transform="translate(346.123,303.5518)"
           id="g86"><path
             id="path88"
             style="fill:#dbaccb;fill-opacity:1;fill-rule:evenodd;stroke:none"
             d="m 0,0 c 3.432,7.321 36.909,4.501 48.541,9.794 46.723,21.264 1.915,42.981 13.402,59.48 7.579,10.893 35.256,-9.826 40.19,-2.964 0,0 -30.471,11.601 -39.364,10.253 C 53.877,75.216 56.03,73.33 55.762,62.012 55.493,50.692 70.09,35.478 56.842,23.474 43.591,11.469 23.964,12.155 10.488,11.616 -2.987,11.078 0,0 0,0" /></g><g
           transform="translate(270.1763,388.3276)"
           id="g90"><path
             id="path92"
             style="fill:#6e4562;fill-opacity:1;fill-rule:evenodd;stroke:none"
             d="M 0,0 C 4.831,-9.81 38.857,-10.126 45.28,2.234 36.188,-22.681 7.502,-16.217 0,0" /></g><g
           transform="translate(306.417,442.3921)"
           id="g94"><path
             id="path96"
             style="fill:#cb93bb;fill-opacity:1;fill-rule:evenodd;stroke:none"
             d="M 0,0 C 4.676,0 8.489,2.299 8.489,5.12 8.489,7.94 4.676,10.239 0,10.239 -4.675,10.239 -8.488,7.94 -8.488,5.12 -8.488,2.299 -4.675,0 0,0" /></g><g
           transform="translate(258.1797,432.9595)"
           id="g98"><path
             id="path100"
             style="fill:#cb93bb;fill-opacity:1;fill-rule:evenodd;stroke:none"
             d="M 0,0 C 1.854,0 3.367,0.967 3.367,2.155 3.367,3.342 1.854,4.311 0,4.311 -1.856,4.311 -3.369,3.342 -3.369,2.155 -3.369,0.967 -1.856,0 0,0" /></g><g
           transform="translate(234.4644,402.2363)"
           id="g102"><path
             id="path104"
             style="fill:#cb93bb;fill-opacity:1;fill-rule:evenodd;stroke:none"
             d="M 0,0 C 2.448,0 4.446,1.937 4.446,4.312 4.446,6.687 2.448,8.625 0,8.625 -2.45,8.625 -4.447,6.687 -4.447,4.312 -4.447,1.937 -2.45,0 0,0" /></g><g
           transform="translate(157.5776,393.7207)"
           id="g106"><path
             id="path108"
             style="fill:#cb93bb;fill-opacity:1;fill-rule:evenodd;stroke:none"
             d="M 0,0 C 2.45,0 4.446,1.938 4.446,4.313 4.446,6.687 2.45,8.625 0,8.625 -2.449,8.625 -4.446,6.687 -4.446,4.313 -4.446,1.938 -2.449,0 0,0" /></g><g
           transform="translate(248.3423,355.0757)"
           id="g110"><path
             id="path112"
             style="fill:#cb93bb;fill-opacity:1;fill-rule:evenodd;stroke:none"
             d="M 0,0 C 3.118,0 5.66,1.271 5.66,2.829 5.66,4.389 3.118,5.66 0,5.66 -3.116,5.66 -5.658,4.389 -5.658,2.829 -5.658,1.271 -3.116,0 0,0" /></g><g
           transform="translate(235.6812,290.2656)"
           id="g114"><path
             id="path116"
             style="fill:#cb93bb;fill-opacity:1;fill-rule:evenodd;stroke:none"
             d="M 0,0 C 3.117,0 5.659,1.271 5.659,2.83 5.659,4.388 3.117,5.658 0,5.658 -3.117,5.658 -5.659,4.388 -5.659,2.83 -5.659,1.271 -3.117,0 0,0" /></g><g
           transform="translate(238.9106,238.6885)"
           id="g118"><path
             id="path120"
             style="fill:#cb93bb;fill-opacity:1;fill-rule:evenodd;stroke:none"
             d="M 0,0 C 3.117,0 5.659,1.271 5.659,2.829 5.659,4.388 3.117,5.658 0,5.658 -3.117,5.658 -5.659,4.388 -5.659,2.829 -5.659,1.271 -3.117,0 0,0" /></g><g
           transform="translate(268.8027,332.439)"
           id="g122"><path
             id="path124"
             style="fill:#cb93bb;fill-opacity:1;fill-rule:evenodd;stroke:none"
             d="M 0,0 C 2.981,0 5.412,1.714 5.412,3.816 5.412,5.92 2.981,7.633 0,7.633 -2.979,7.633 -5.41,5.92 -5.41,3.816 -5.41,1.714 -2.979,0 0,0" /></g><g
           transform="translate(320.9697,350.7627)"
           id="g126"><path
             id="path128"
             style="fill:#cb93bb;fill-opacity:1;fill-rule:evenodd;stroke:none"
             d="M 0,0 C 2.006,0 3.639,1.09 3.639,2.427 3.639,3.763 2.006,4.852 0,4.852 -2.002,4.852 -3.636,3.763 -3.636,2.427 -3.636,1.09 -2.002,0 0,0" /></g><g
           transform="translate(346.4385,387.6841)"
           id="g130"><path
             id="path132"
             style="fill:#cb93bb;fill-opacity:1;fill-rule:evenodd;stroke:none"
             d="M 0,0 C 1.482,0 2.693,0.849 2.693,1.887 2.693,2.926 1.482,3.773 0,3.773 -1.485,3.773 -2.696,2.926 -2.696,1.887 -2.696,0.849 -1.485,0 0,0" /></g><g
           transform="translate(332.2891,426.2212)"
           id="g134"><path
             id="path136"
             style="fill:#cb93bb;fill-opacity:1;fill-rule:evenodd;stroke:none"
             d="M 0,0 C 1.707,0 3.099,0.666 3.099,1.483 3.099,2.299 1.707,2.965 0,2.965 -1.707,2.965 -3.1,2.299 -3.1,1.483 -3.1,0.666 -1.707,0 0,0" /></g><g
           transform="translate(304.8008,305.7607)"
           id="g138"><path
             id="path140"
             style="fill:#cb93bb;fill-opacity:1;fill-rule:evenodd;stroke:none"
             d="M 0,0 C 2.599,0 4.716,1.573 4.716,3.504 4.716,5.433 2.599,7.007 0,7.007 -2.596,7.007 -4.716,5.433 -4.716,3.504 -4.716,1.573 -2.596,0 0,0" /></g><g
           transform="translate(337.8125,290.1299)"
           id="g142"><path
             id="path144"
             style="fill:#cb93bb;fill-opacity:1;fill-rule:evenodd;stroke:none"
             d="M 0,0 C 1.781,0 3.233,1.332 3.233,2.966 3.233,4.597 1.781,5.93 0,5.93 -1.78,5.93 -3.233,4.597 -3.233,2.966 -3.233,1.332 -1.78,0 0,0" /></g><g
           transform="translate(400.2012,266.1465)"
           id="g146"><path
             id="path148"
             style="fill:#cb93bb;fill-opacity:1;fill-rule:evenodd;stroke:none"
             d="M 0,0 C 1.117,0 2.022,0.785 2.022,1.751 2.022,2.715 1.117,3.502 0,3.502 -1.113,3.502 -2.019,2.715 -2.019,1.751 -2.019,0.785 -1.113,0 0,0" /></g><g
           transform="translate(433.7539,295.252)"
           id="g150"><path
             id="path152"
             style="fill:#cb93bb;fill-opacity:1;fill-rule:evenodd;stroke:none"
             d="M 0,0 C 1.187,0 2.156,0.543 2.156,1.212 2.156,1.879 1.187,2.424 0,2.424 -1.188,2.424 -2.153,1.879 -2.153,1.212 -2.153,0.543 -1.188,0 0,0" /></g><g
           transform="translate(394.8145,332.4404)"
           id="g154"><path
             id="path156"
             style="fill:#cb93bb;fill-opacity:1;fill-rule:evenodd;stroke:none"
             d="M 0,0 C 2.15,0 3.908,0.787 3.908,1.753 3.908,2.717 2.15,3.503 0,3.503 -2.152,3.503 -3.91,2.717 -3.91,1.753 -3.91,0.787 -2.152,0 0,0" /></g><g
           transform="translate(270.1763,275.3096)"
           id="g158"><path
             id="path160"
             style="fill:#cb93bb;fill-opacity:1;fill-rule:evenodd;stroke:none"
             d="M 0,0 C 1.486,0 2.695,1.392 2.695,3.099 2.695,4.806 1.486,6.197 0,6.197 -1.484,6.197 -2.695,4.806 -2.695,3.099 -2.695,1.392 -1.484,0 0,0" /></g><g
           transform="translate(241.0718,312.2285)"
           id="g162"><path
             id="path164"
             style="fill:#cb93bb;fill-opacity:1;fill-rule:evenodd;stroke:none"
             d="M 0,0 C 2.969,0 5.39,1.454 5.39,3.235 5.39,5.016 2.969,6.468 0,6.468 -2.969,6.468 -5.391,5.016 -5.391,3.235 -5.391,1.454 -2.969,0 0,0" /></g><g
           transform="translate(180.436,336.2134)"
           id="g166"><path
             id="path168"
             style="fill:#cb93bb;fill-opacity:1;fill-rule:evenodd;stroke:none"
             d="M 0,0 C 2.821,0 5.12,1.209 5.12,2.695 5.12,4.179 2.821,5.39 0,5.39 -2.82,5.39 -5.121,4.179 -5.121,2.695 -5.121,1.209 -2.82,0 0,0" /></g><g
           transform="translate(176.5288,280.4297)"
           id="g170"><path
             id="path172"
             style="fill:#cb93bb;fill-opacity:1;fill-rule:evenodd;stroke:none"
             d="M 0,0 C 3.191,0 5.794,1.149 5.794,2.561 5.794,3.97 3.191,5.119 0,5.119 -3.191,5.119 -5.794,3.97 -5.794,2.561 -5.794,1.149 -3.191,0 0,0" /></g><g
           transform="translate(121.0469,293.9033)"
           id="g174"><path
             id="path176"
             style="fill:#cb93bb;fill-opacity:1;fill-rule:evenodd;stroke:none"
             d="M 0,0 C 3.321,0 6.029,1.483 6.029,3.304 6.029,5.125 3.321,6.608 0,6.608 -3.322,6.608 -6.031,5.125 -6.031,3.304 -6.031,1.483 -3.322,0 0,0" /></g><g
           transform="translate(267.4277,405.4478)"
           id="g178"><path
             id="path180"
             style="fill:#f3f2f2;fill-opacity:1;fill-rule:evenodd;stroke:none"
             d="m 0,0 v 0 c -1.489,0 -2.707,1.217 -2.707,2.707 0,1.488 1.218,2.706 2.707,2.706 1.489,0 2.707,-1.218 2.707,-2.706 C 2.707,1.217 1.489,0 0,0" /></g><g
           transform="translate(317.3604,408.1543)"
           id="g182"><path
             id="path184"
             style="fill:#f3f2f2;fill-opacity:1;fill-rule:evenodd;stroke:none"
             d="m 0,0 v 0 c -1.489,0 -2.706,1.217 -2.706,2.707 0,1.487 1.217,2.706 2.706,2.706 1.486,0 2.707,-1.219 2.707,-2.706 C 2.707,1.217 1.486,0 0,0" /></g><g
           transform="translate(232.5659,433.8984)"
           id="g186"><path
             id="path188"
             style="fill:#cf91b9;fill-opacity:1;fill-rule:nonzero;stroke:none"
             d="m 0,0 c -1.176,-0.934 -2.361,-1.936 -3.043,-3.273 -0.683,-1.338 -0.744,-3.104 0.241,-4.24 1.12,-1.291 3.194,-1.321 4.734,-0.576 1.539,0.744 2.69,2.081 3.872,3.316 7.167,7.491 17.123,12.187 27.428,13.2 3.683,0.362 6.085,-3.779 3.931,-6.787 -2.241,-3.126 0.447,-7.439 4.225,-6.729 10.909,2.047 22.244,1.831 33.054,-0.698 1.234,-0.289 2.505,-0.609 3.753,-0.391 1.251,0.217 2.478,1.139 2.598,2.4 0.192,1.943 -2.048,3.114 -3.904,3.728 -4.835,1.601 -9.672,3.199 -14.511,4.796 -2.191,0.722 -3.583,3.075 -2.827,5.254 0.188,0.548 0.268,1.13 0.204,1.713 -0.332,3.106 -3.814,4.862 -6.921,5.177 C 50.17,17.16 42.064,18.466 40.2,18.292 35.356,17.837 30.249,15.986 25.704,14.336 16.443,10.974 7.718,6.127 0,0" /></g><g
           transform="translate(208.5073,324.5205)"
           id="g190"><path
             id="path192"
             style="fill:#cf91b9;fill-opacity:1;fill-rule:nonzero;stroke:none"
             d="M 0,0 C 7.859,-0.994 15.849,-0.725 23.496,-3.753 22.688,-0.199 19.917,0.948 17.555,1.582 12.139,3.033 6.723,4.486 1.307,5.938 -2.596,6.986 -6.499,8.032 -10.402,9.079 -12.079,9.53 -19.128,13.166 -19.105,9.309 -19.065,2.358 -3.043,0.386 0,0" /></g><g
           transform="translate(381.6143,272.7705)"
           id="g194"><path
             id="path196"
             style="fill:#cf91b9;fill-opacity:1;fill-rule:nonzero;stroke:none"
             d="m 0,0 c 1.875,-0.003 4.33,-0.349 4.648,-2.193 0.346,-1.991 -2.223,-3.092 -4.229,-3.323 -12.771,-1.46 -26.073,2.438 -36.037,10.56 -1.009,0.824 -2.009,1.718 -2.589,2.885 -1.959,3.937 2.512,5.771 5.668,4.457 2.673,-1.115 4.822,-4.187 7.418,-5.684 C -17.558,2.341 -8.717,0.025 0,0" /></g><g
           transform="translate(382.248,328.9673)"
           id="g198"><path
             id="path200"
             style="fill:#cf91b9;fill-opacity:1;fill-rule:nonzero;stroke:none"
             d="m 0,0 c -2.556,-2.879 -5.57,-5.349 -8.897,-7.283 -10.398,-6.04 -22.985,-6.536 -35.001,-6.877 -2.534,-0.072 -5.149,-0.129 -7.497,0.816 -1.398,0.561 -3.977,2.285 -4.028,4.044 -0.083,2.826 1.741,1.919 4.193,1.951 5.839,0.077 11.631,0.132 17.454,0.663 C -22.326,-5.64 -10.983,-3.401 0,0" /></g><g
           transform="translate(438.1709,380.604)"
           id="g202"><path
             id="path204"
             style="fill:#cf91b9;fill-opacity:1;fill-rule:nonzero;stroke:none"
             d="M 0,0 C 0.656,-0.515 1.368,-1.241 1.163,-2.049 0.878,-3.178 -0.726,-3.146 -1.852,-2.856 -8.989,-1.021 -16.126,0.815 -23.264,2.649 -26.11,3.382 -41.428,6.287 -33.64,9.424 -23.819,13.38 -7.504,5.875 0,0" /></g><g
           transform="translate(187.7158,210.7607)"
           id="g206"><path
             id="path208"
             style="fill:#cf91b9;fill-opacity:1;fill-rule:nonzero;stroke:none"
             d="m 0,0 c -1.152,-7.746 1.8,-15.982 7.61,-21.233 0.856,-0.775 1.893,-1.526 3.043,-1.429 1.65,0.141 2.662,2.033 2.543,3.683 -0.119,1.652 -1.018,3.125 -1.744,4.613 -3.542,7.253 -3.108,16.3 1.111,23.18 1.203,1.964 3.917,5.769 1.483,7.925 C 12.044,18.514 9.158,15.563 7.695,14.23 3.631,10.538 0.81,5.445 0,0" /></g><g
           transform="translate(321.6973,249.5801)"
           id="g210"><path
             id="path212"
             style="fill:#cf91b9;fill-opacity:1;fill-rule:nonzero;stroke:none"
             d="m 0,0 c -1.63,-2.872 -4.048,-5.201 -6.058,-7.823 -6.62,-8.631 -8.481,-20.693 -4.772,-30.919 3.71,-10.226 12.873,-18.288 23.487,-20.668 -4.02,5.02 -8.039,10.042 -12.056,15.062 -2.794,3.49 -5.679,7.162 -6.564,11.546 -1.106,5.449 1.08,11.035 3.88,15.84 2.804,4.803 6.289,9.272 8.19,14.499 2.157,5.928 2.09,12.636 -0.187,18.518 -0.648,1.674 -1.758,3.494 -3.542,3.677 -5.357,0.554 -2.713,-6.445 -1.7,-8.639 C 2.298,7.57 1.909,3.365 0,0" /></g><g
           transform="translate(136.8984,299.3789)"
           id="g214"><path
             id="path216"
             style="fill:#cf91b9;fill-opacity:1;fill-rule:nonzero;stroke:none"
             d="m 0,0 c -1.121,0.11 -2.279,0.211 -3.352,-0.135 -1.072,-0.346 -2.044,-1.26 -2.1,-2.385 -0.053,-1.063 0.724,-2.027 1.669,-2.518 0.946,-0.491 2.034,-0.602 3.095,-0.702 13.376,-1.253 26.989,-1.865 39.744,-6.09 7.164,-2.37 13.954,-5.856 21.265,-7.724 7.312,-1.868 15.563,-1.922 21.873,2.216 1.144,0.751 2.325,2.126 1.665,3.323 -0.508,0.922 -1.763,1.038 -2.815,1.04 -5.646,0.013 -11.294,0.018 -16.94,0.042 -4.651,0.02 -9.284,2.325 -13.794,3.571 C 39.688,-6.426 28.902,-4.079 18.02,-2.333 12.191,-1.397 5.914,0 0,0" /></g><g
           transform="translate(159.8403,117.6904)"
           id="g218"><path
             id="path220"
             style="fill:#020102;fill-opacity:1;fill-rule:nonzero;stroke:none"
             d="m 0,0 h 19.688 c 1.656,0 3.097,-0.629 4.324,-1.886 1.227,-1.258 1.84,-2.714 1.84,-4.37 0,-9.2 -3.189,-16.989 -9.567,-23.368 -6.38,-6.379 -14.169,-9.567 -23.369,-9.567 -9.2,0 -16.99,3.188 -23.368,9.567 -6.38,6.379 -9.568,14.168 -9.568,23.368 0,9.2 3.188,16.988 9.568,23.368 6.378,6.378 14.168,9.569 23.368,9.569 9.752,0 17.94,-3.681 24.564,-11.04 1.165,-1.288 1.748,-2.638 1.748,-4.048 0,-1.719 -0.644,-3.206 -1.932,-4.463 -1.288,-1.258 -2.792,-1.886 -4.507,-1.886 -1.657,0 -3.161,0.736 -4.509,2.208 -4.048,4.538 -9.17,6.809 -15.364,6.809 -5.828,0 -10.704,-1.964 -14.628,-5.889 -3.926,-3.926 -5.888,-8.802 -5.888,-14.628 0,-5.765 1.978,-10.626 5.934,-14.582 3.956,-3.956 8.816,-5.933 14.582,-5.933 4.539,0 8.602,1.318 12.19,3.956 3.588,2.635 6.057,6.101 7.406,10.395 L 0,-12.42 c -1.84,0 -3.328,0.582 -4.462,1.748 -1.136,1.165 -1.702,2.668 -1.702,4.508 0,1.841 0.566,3.327 1.702,4.462 C -3.328,-0.567 -1.84,0 0,0" /></g><g
           transform="translate(202.7109,119.3467)"
           id="g222"><path
             id="path224"
             style="fill:#020102;fill-opacity:1;fill-rule:nonzero;stroke:none"
             d="m 0,0 c 0,4.108 -2.086,6.164 -6.256,6.164 -1.84,0 -3.328,-0.567 -4.462,-1.702 C -11.854,3.326 -12.42,1.84 -12.42,0 v -34.5 c 0,-1.84 0.566,-3.328 1.702,-4.462 1.134,-1.134 2.622,-1.702 4.462,-1.702 1.84,0 3.343,0.568 4.508,1.702 C -0.583,-37.828 0,-36.34 0,-34.5 Z M -0.874,23.598 C 0.629,22.095 1.38,20.301 1.38,18.216 1.38,16.13 0.629,14.336 -0.874,12.834 -2.377,11.33 -4.171,10.58 -6.256,10.58 c -2.086,0 -3.88,0.75 -5.382,2.254 -1.504,1.502 -2.254,3.296 -2.254,5.382 0,2.085 0.75,3.879 2.254,5.382 1.502,1.503 3.296,2.255 5.382,2.255 2.085,0 3.879,-0.752 5.382,-2.255" /></g><g
           transform="translate(247.4219,98.5547)"
           id="g226"><path
             id="path228"
             style="fill:#020102;fill-opacity:1;fill-rule:nonzero;stroke:none"
             d="m 0,0 c 0,-5.582 -1.902,-10.29 -5.704,-14.122 -3.804,-3.834 -8.496,-5.75 -14.076,-5.75 -5.644,0 -10.366,1.9 -14.168,5.704 -3.804,3.802 -5.704,8.524 -5.704,14.168 v 31.648 c 0,1.84 0.566,3.342 1.702,4.508 1.134,1.164 2.622,1.748 4.462,1.748 1.84,0 3.342,-0.584 4.508,-1.748 1.165,-1.166 1.748,-2.668 1.748,-4.508 v -4.876 h 21.068 c 1.84,0 3.326,-0.568 4.462,-1.702 C -0.568,23.935 0,22.448 0,20.608 0,16.437 -2.056,14.353 -6.164,14.353 H -27.232 V 0 c 0,-2.086 0.72,-3.85 2.162,-5.29 1.44,-1.441 3.204,-2.162 5.29,-2.162 2.085,0 3.833,0.721 5.244,2.162 1.41,1.44 2.116,3.204 2.116,5.29 v 0.828 c 0,1.778 0.598,3.25 1.794,4.416 1.196,1.164 2.683,1.748 4.462,1.748 1.778,0 3.25,-0.584 4.416,-1.748 C -0.584,4.078 0,2.606 0,0.828 Z" /></g><g
           transform="translate(292.501,117.6904)"
           id="g230"><path
             id="path232"
             style="fill:#020102;fill-opacity:1;fill-rule:nonzero;stroke:none"
             d="m 0,0 h 19.687 c 1.657,0 3.097,-0.629 4.325,-1.886 1.226,-1.258 1.84,-2.714 1.84,-4.37 0,-9.2 -3.19,-16.989 -9.568,-23.368 -6.38,-6.379 -14.169,-9.567 -23.368,-9.567 -9.2,0 -16.99,3.188 -23.368,9.567 -6.38,6.379 -9.569,14.168 -9.569,23.368 0,9.2 3.189,16.988 9.569,23.368 6.378,6.378 14.168,9.569 23.368,9.569 9.752,0 17.939,-3.681 24.563,-11.04 1.166,-1.288 1.749,-2.638 1.749,-4.048 0,-1.719 -0.644,-3.206 -1.932,-4.463 -1.288,-1.258 -2.792,-1.886 -4.508,-1.886 -1.656,0 -3.16,0.736 -4.509,2.208 -4.048,4.538 -9.169,6.809 -15.363,6.809 -5.828,0 -10.704,-1.964 -14.628,-5.889 -3.926,-3.926 -5.889,-8.802 -5.889,-14.628 0,-5.765 1.979,-10.626 5.935,-14.582 3.956,-3.956 8.816,-5.933 14.582,-5.933 4.538,0 8.602,1.318 12.189,3.956 3.588,2.635 6.057,6.101 7.407,10.395 L 0,-12.42 c -1.84,0 -3.328,0.582 -4.462,1.748 -1.136,1.165 -1.702,2.668 -1.702,4.508 0,1.841 0.566,3.327 1.702,4.462 C -3.328,-0.567 -1.84,0 0,0" /></g><g
           transform="translate(335.3711,105.7305)"
           id="g234"><path
             id="path236"
             style="fill:#020102;fill-opacity:1;fill-rule:nonzero;stroke:none"
             d="m 0,0 v -20.884 c 0,-1.84 -0.583,-3.328 -1.748,-4.462 -1.165,-1.133 -2.668,-1.702 -4.508,-1.702 -1.84,0 -3.328,0.569 -4.462,1.702 -1.136,1.134 -1.702,2.622 -1.702,4.462 V 0 c 0,5.581 1.916,10.272 5.75,14.076 3.833,3.803 8.54,5.704 14.122,5.704 1.778,0 3.25,-0.584 4.416,-1.748 1.164,-1.166 1.748,-2.637 1.748,-4.416 C 13.616,9.813 11.5,7.729 7.269,7.36 5.183,7.177 3.45,6.425 2.07,5.106 0.69,3.787 0,2.085 0,0" /></g><g
           transform="translate(377.4141,78.499)"
           id="g238"><path
             id="path240"
             style="fill:#020102;fill-opacity:1;fill-rule:nonzero;stroke:none"
             d="m 0,0 c -6.624,0 -12.189,2.269 -16.697,6.808 -4.509,4.538 -6.763,10.12 -6.763,16.744 0,6.624 2.254,12.19 6.763,16.698 4.508,4.508 10.073,6.762 16.697,6.762 6.624,0 12.205,-2.254 16.744,-6.762 4.538,-4.508 6.809,-10.074 6.809,-16.698 V 6.348 c 0,-1.84 -0.584,-3.328 -1.748,-4.462 -1.166,-1.134 -2.668,-1.702 -4.509,-1.702 -1.84,0 -3.327,0.568 -4.462,1.702 -1.136,1.134 -1.702,2.622 -1.702,4.462 v 17.204 c 0,3.066 -1.089,5.672 -3.266,7.82 -2.178,2.146 -4.8,3.22 -7.866,3.22 -3.067,0 -5.674,-1.074 -7.819,-3.22 -2.149,-2.148 -3.221,-4.754 -3.221,-7.82 0,-3.068 1.072,-5.69 3.221,-7.866 C -5.674,13.508 -3.067,12.42 0,12.42 1.84,12.42 3.343,11.852 4.508,10.718 5.673,9.582 6.256,8.096 6.256,6.256 6.256,4.416 5.673,2.912 4.508,1.748 3.343,0.583 1.84,0 0,0" /></g><g
           transform="translate(429.3926,113.2744)"
           id="g242"><path
             id="path244"
             style="fill:#020102;fill-opacity:1;fill-rule:nonzero;stroke:none"
             d="m 0,0 c -3.067,0 -5.674,-1.089 -7.819,-3.266 -2.149,-2.177 -3.221,-4.799 -3.221,-7.866 0,-3.067 1.072,-5.674 3.221,-7.82 2.145,-2.148 4.752,-3.22 7.819,-3.22 3.066,0 5.688,1.072 7.866,3.22 2.177,2.146 3.266,4.753 3.266,7.82 v 36.065 c 0,1.778 0.583,3.25 1.748,4.416 1.165,1.164 2.637,1.748 4.416,1.748 1.841,0 3.343,-0.569 4.509,-1.702 1.164,-1.136 1.748,-2.623 1.748,-4.462 v -36.065 c 0,-6.563 -2.286,-12.113 -6.855,-16.651 -4.569,-4.54 -10.136,-6.809 -16.698,-6.809 -6.563,0 -12.113,2.269 -16.651,6.809 -4.54,4.538 -6.809,10.088 -6.809,16.651 0,6.624 2.254,12.204 6.763,16.744 4.508,4.538 10.073,6.808 16.697,6.808 1.84,0 3.343,-0.583 4.508,-1.748 C 5.673,9.507 6.256,8.004 6.256,6.164 6.256,4.324 5.673,2.837 4.508,1.702 3.343,0.566 1.84,0 0,0" /></g></g></g></g></svg>