<?xml version="1.0" encoding="UTF-8" standalone="no"?>
<svg
   xmlns:dc="http://purl.org/dc/elements/1.1/"
   xmlns:cc="http://creativecommons.org/ns#"
   xmlns:rdf="http://www.w3.org/1999/02/22-rdf-syntax-ns#"
   xmlns:svg="http://www.w3.org/2000/svg"
   xmlns="http://www.w3.org/2000/svg"
   viewBox="0 0 2666.6667 666.66669"
   height="666.66669"
   width="2666.6667"
   xml:space="preserve"
   id="svg2"
   version="1.1"><metadata
     id="metadata8"><rdf:RDF><cc:Work
         rdf:about=""><dc:format>image/svg+xml</dc:format><dc:type
           rdf:resource="http://purl.org/dc/dcmitype/StillImage" /></cc:Work></rdf:RDF></metadata><defs
     id="defs6"><clipPath
       id="clipPath18"
       clipPathUnits="userSpaceOnUse"><path
         id="path16"
         d="M 0,500 H 2000 V 0 H 0 Z" /></clipPath></defs><g
     transform="matrix(1.3333333,0,0,-1.3333333,0,666.66667)"
     id="g10"><g
       id="g12"><g
         clip-path="url(#clipPath18)"
         id="g14"><g
           transform="translate(393.2793,288.0576)"
           id="g20"><path
             id="path22"
             style="fill:#020001;fill-opacity:1;fill-rule:nonzero;stroke:none"
             d="m 0,0 h 93.255 c 7.844,0 14.666,-2.982 20.481,-8.933 5.808,-5.958 8.716,-12.856 8.716,-20.699 0,-43.578 -15.109,-80.474 -45.321,-110.686 -30.217,-30.218 -67.108,-45.321 -110.685,-45.321 -43.577,0 -80.475,15.103 -110.686,45.321 -30.218,30.212 -45.32,67.108 -45.32,110.686 0,43.577 15.102,80.467 45.32,110.686 30.211,30.211 67.109,45.32 110.686,45.32 46.191,0 84.975,-17.431 116.35,-52.293 5.516,-6.101 8.28,-12.494 8.28,-19.174 0,-8.136 -3.05,-15.184 -9.151,-21.135 -6.101,-5.958 -13.223,-8.933 -21.353,-8.933 -7.843,0 -14.966,3.486 -21.353,10.458 -19.174,21.496 -43.434,32.247 -72.773,32.247 -27.604,0 -50.699,-9.3 -69.288,-27.889 -18.595,-18.595 -27.889,-41.691 -27.889,-69.287 0,-27.31 9.369,-50.332 28.107,-69.07 18.738,-18.738 41.759,-28.108 69.07,-28.108 21.495,0 40.744,6.245 57.74,18.739 16.994,12.488 28.685,28.904 35.079,49.242 H 0 c -8.715,0 -15.763,2.758 -21.135,8.279 -5.379,5.516 -8.062,12.638 -8.062,21.354 0,8.715 2.683,15.755 8.062,21.134 C -15.763,-2.689 -8.715,0 0,0" /></g><g
           transform="translate(596.3447,295.9014)"
           id="g24"><path
             id="path26"
             style="fill:#020001;fill-opacity:1;fill-rule:nonzero;stroke:none"
             d="m 0,0 c 0,19.46 -9.88,29.197 -29.633,29.197 -8.715,0 -15.762,-2.69 -21.135,-8.062 C -56.146,15.756 -58.829,8.716 -58.829,0 v -163.414 c 0,-8.715 2.683,-15.763 8.061,-21.135 5.373,-5.372 12.42,-8.061 21.135,-8.061 8.716,0 15.831,2.689 21.353,8.061 5.515,5.372 8.28,12.42 8.28,21.135 z M -4.14,111.775 C 2.975,104.653 6.537,96.156 6.537,86.283 6.537,76.403 2.975,67.906 -4.14,60.79 -11.262,53.668 -19.76,50.114 -29.633,50.114 c -9.879,0 -18.377,3.554 -25.492,10.676 -7.122,7.116 -10.677,15.613 -10.677,25.493 0,9.873 3.555,18.37 10.677,25.492 7.115,7.116 15.613,10.677 25.492,10.677 9.873,0 18.371,-3.561 25.493,-10.677" /></g><g
           transform="translate(808.1235,197.418)"
           id="g28"><path
             id="path30"
             style="fill:#020001;fill-opacity:1;fill-rule:nonzero;stroke:none"
             d="m 0,0 c 0,-26.439 -9.008,-48.739 -27.018,-66.892 -18.016,-18.159 -40.24,-27.235 -66.672,-27.235 -26.732,0 -49.1,9.001 -67.109,27.018 -18.016,18.009 -27.018,40.377 -27.018,67.109 v 149.905 c 0,8.715 2.683,15.83 8.062,21.352 5.372,5.515 12.419,8.28 21.134,8.28 8.716,0 15.831,-2.765 21.353,-8.28 5.516,-5.522 8.28,-12.637 8.28,-21.352 v -23.096 h 99.792 c 8.715,0 15.756,-2.69 21.134,-8.062 C -2.689,113.368 0,106.328 0,97.612 0,77.853 -9.737,67.979 -29.196,67.979 h -99.792 V 0 c 0,-9.881 3.411,-18.234 10.24,-25.058 6.823,-6.829 15.178,-10.24 25.058,-10.24 9.873,0 18.152,3.411 24.838,10.24 6.68,6.824 10.023,15.177 10.023,25.058 v 3.922 c 0,8.422 2.832,15.394 8.497,20.916 5.665,5.516 12.706,8.28 21.136,8.28 8.422,0 15.394,-2.764 20.917,-8.28 C -2.764,19.316 0,12.344 0,3.922 Z" /></g><g
           transform="translate(1021.6484,288.0576)"
           id="g32"><path
             id="path34"
             style="fill:#020001;fill-opacity:1;fill-rule:nonzero;stroke:none"
             d="m 0,0 h 93.254 c 7.844,0 14.668,-2.982 20.482,-8.933 5.807,-5.958 8.715,-12.856 8.715,-20.699 0,-43.578 -15.109,-80.474 -45.32,-110.686 -30.219,-30.218 -67.11,-45.321 -110.686,-45.321 -43.577,0 -80.474,15.103 -110.686,45.321 -30.217,30.212 -45.32,67.108 -45.32,110.686 0,43.577 15.103,80.467 45.32,110.686 30.212,30.211 67.109,45.32 110.686,45.32 46.192,0 84.975,-17.431 116.352,-52.293 5.514,-6.101 8.279,-12.494 8.279,-19.174 0,-8.136 -3.051,-15.184 -9.152,-21.135 -6.1,-5.958 -13.223,-8.933 -21.352,-8.933 -7.843,0 -14.967,3.486 -21.353,10.458 -19.174,21.496 -43.434,32.247 -72.774,32.247 -27.603,0 -50.699,-9.3 -69.287,-27.889 -18.596,-18.595 -27.889,-41.691 -27.889,-69.287 0,-27.31 9.368,-50.332 28.106,-69.07 18.739,-18.738 41.76,-28.108 69.07,-28.108 21.496,0 40.744,6.245 57.741,18.739 16.994,12.488 28.685,28.904 35.078,49.242 H 0 c -8.717,0 -15.764,2.758 -21.135,8.279 -5.379,5.516 -8.062,12.638 -8.062,21.354 0,8.715 2.683,15.755 8.062,21.134 C -15.764,-2.689 -8.717,0 0,0" /></g><g
           transform="translate(1224.7129,231.4082)"
           id="g36"><path
             id="path38"
             style="fill:#020001;fill-opacity:1;fill-rule:nonzero;stroke:none"
             d="m 0,0 v -98.921 c 0,-8.715 -2.764,-15.763 -8.279,-21.135 -5.523,-5.372 -12.638,-8.061 -21.353,-8.061 -8.716,0 -15.763,2.689 -21.135,8.061 -5.379,5.372 -8.062,12.42 -8.062,21.135 V 0 c 0,26.432 9.076,48.656 27.236,66.672 18.153,18.01 40.451,27.018 66.891,27.018 8.423,0 15.394,-2.764 20.917,-8.28 5.514,-5.522 8.279,-12.494 8.279,-20.917 C 64.494,46.477 54.472,36.604 34.426,34.861 24.547,33.989 16.342,30.428 9.805,24.185 3.269,17.934 0,9.872 0,0" /></g><g
           transform="translate(1423.8564,102.4189)"
           id="g40"><path
             id="path42"
             style="fill:#020001;fill-opacity:1;fill-rule:nonzero;stroke:none"
             d="m 0,0 c -31.376,0 -57.74,10.745 -79.093,32.247 -21.352,21.496 -32.029,47.936 -32.029,79.311 0,31.375 10.677,57.739 32.029,79.092 21.353,21.353 47.717,32.029 79.093,32.029 31.375,0 57.808,-10.676 79.311,-32.029 21.495,-21.353 32.246,-47.717 32.246,-79.092 v -81.49 c 0,-8.714 -2.764,-15.762 -8.28,-21.134 C 97.756,3.562 90.64,0.872 81.925,0.872 c -8.716,0 -15.763,2.69 -21.135,8.062 -5.379,5.372 -8.061,12.42 -8.061,21.134 v 81.49 c 0,14.523 -5.162,26.868 -15.471,37.04 C 26.942,158.764 14.523,163.85 0,163.85 c -14.53,0 -26.875,-5.086 -37.041,-15.252 -10.172,-10.172 -15.252,-22.517 -15.252,-37.04 0,-14.531 5.08,-26.95 15.252,-37.258 C -26.875,63.983 -14.53,58.829 0,58.829 c 8.715,0 15.83,-2.689 21.353,-8.061 5.515,-5.379 8.279,-12.419 8.279,-21.135 0,-8.716 -2.764,-15.838 -8.279,-21.353 C 15.83,2.765 8.715,0 0,0" /></g><g
           transform="translate(1670.0615,267.1406)"
           id="g44"><path
             id="path46"
             style="fill:#020001;fill-opacity:1;fill-rule:nonzero;stroke:none"
             d="m 0,0 c -14.53,0 -26.875,-5.161 -37.041,-15.47 -10.172,-10.315 -15.252,-22.735 -15.252,-37.259 0,-14.529 5.08,-26.875 15.252,-37.04 10.166,-10.172 22.511,-15.252 37.041,-15.252 14.523,0 26.942,5.08 37.258,15.252 10.309,10.165 15.471,22.511 15.471,37.04 v 170.823 c 0,8.423 2.756,15.395 8.279,20.917 5.514,5.515 12.487,8.28 20.917,8.28 8.715,0 15.831,-2.69 21.352,-8.062 5.516,-5.379 8.28,-12.419 8.28,-21.135 V -52.729 c 0,-31.089 -10.827,-57.377 -32.465,-78.874 C 57.446,-153.105 31.083,-163.85 0,-163.85 c -31.09,0 -57.379,10.745 -78.875,32.247 -21.502,21.497 -32.247,47.785 -32.247,78.874 0,31.376 10.677,57.809 32.029,79.311 21.353,21.496 47.717,32.247 79.093,32.247 8.715,0 15.83,-2.764 21.353,-8.28 5.515,-5.522 8.279,-12.637 8.279,-21.352 0,-8.716 -2.764,-15.763 -8.279,-21.135 C 15.83,2.683 8.715,0 0,0" /></g></g></g></g></svg>